<svg width="181" height="56" viewBox="0 0 181 56" fill="none" xmlns="http://www.w3.org/2000/svg">
<g clip-path="url(#clip0_25_1538)">
<path d="M108.768 12.3918H102.432C101.95 12.3943 101.478 12.5353 101.073 12.7982C100.669 13.0611 100.349 13.4347 100.15 13.8745L89.1073 38.4453L78.0675 13.8745C77.8694 13.4347 77.549 13.0611 77.1445 12.7982C76.7399 12.5353 76.2683 12.3943 75.7859 12.3918H69.4266C69.0054 12.3921 68.591 12.4983 68.2215 12.7005C67.852 12.9028 67.5393 13.1946 67.3121 13.5493C67.085 13.9039 66.9506 14.31 66.9214 14.7301C66.8922 15.1502 66.9691 15.571 67.145 15.9536L84.4626 53.6179C84.6632 54.0544 84.9848 54.4241 85.3892 54.6835C85.7935 54.9428 86.2638 55.0808 86.7442 55.0811H91.4476C91.928 55.0808 92.3983 54.9428 92.8027 54.6835C93.207 54.4241 93.5286 54.0544 93.7292 53.6179L111.05 15.9536C111.226 15.571 111.303 15.1502 111.274 14.7301C111.244 14.31 111.11 13.9039 110.883 13.5493C110.656 13.1946 110.343 12.9028 109.974 12.7005C109.604 12.4983 109.19 12.3921 108.768 12.3918Z" fill="#06232C"/>
<path d="M46.6821 11.4077C34.9806 11.4077 25.7334 21.0014 25.7334 33.2705C25.7334 45.6276 35.062 56.0001 47.5002 56.0001C52.2492 56.0001 57.9761 54.4424 63.2956 50.1344C64.3614 49.2708 64.5244 48.1465 63.6215 46.9376L60.0198 42.4438C59.1202 41.3195 58.1391 41.2348 56.9918 41.9256C54.5374 43.7407 51.3464 45.3832 47.6632 45.3832C43.2433 45.3832 38.6605 42.7762 36.6135 37.2592H65.4207C66.7245 37.2592 67.5492 36.4803 67.4677 35.0139C66.6528 20.48 58.0576 11.4077 46.6821 11.4077ZM36.6983 28.604C37.5979 24.0418 41.5288 20.7407 46.4376 20.7407C48.7016 20.7249 50.8995 21.503 52.6491 22.9396C54.3988 24.3763 55.5894 26.3806 56.0139 28.604H36.6983Z" fill="#06232C"/>
<path d="M132.204 11.4077C120.503 11.4077 111.255 21.0014 111.255 33.2705C111.255 45.6276 120.584 56.0001 133.022 56.0001C137.771 56.0001 143.498 54.4424 148.818 50.1344C149.883 49.2708 150.046 48.1465 149.144 46.9376L145.542 42.4438C144.642 41.3195 143.661 41.2348 142.514 41.9256C140.059 43.7407 136.868 45.3832 133.185 45.3832C128.765 45.3832 124.182 42.7762 122.136 37.2592H150.946C152.25 37.2592 153.074 36.4803 152.993 35.0139C152.175 20.48 143.58 11.4077 132.204 11.4077ZM122.23 28.604C123.13 24.0418 127.061 20.7407 131.969 20.7407C134.233 20.7249 136.431 21.503 138.181 22.9396C139.931 24.3763 141.121 26.3806 141.546 28.604H122.23Z" fill="#06232C"/>
<path d="M19.7165 0.882008C8.65707 2.43316 0.0683632 12.9654 0.00317383 25.707V52.5686C0.00317383 53.235 0.267942 53.874 0.73923 54.3452C1.21052 54.8164 1.84972 55.0811 2.51623 55.0811H8.93086C9.26088 55.0811 9.58767 55.0161 9.89257 54.8899C10.1975 54.7636 10.4745 54.5785 10.7079 54.3452C10.9412 54.1119 11.1263 53.8349 11.2526 53.5301C11.3789 53.2253 11.4439 52.8986 11.4439 52.5686V37.1483H18.3573C19.0238 37.1483 19.663 36.8836 20.1342 36.4125C20.6055 35.9413 20.8703 35.3022 20.8703 34.6359V29.9792C20.8703 29.3128 20.6055 28.6737 20.1342 28.2026C19.663 27.7314 19.0238 27.4667 18.3573 27.4667H11.4439V25.8373C11.4439 19.2971 15.3553 13.8387 20.5346 12.6949C21.0992 12.5766 21.6063 12.2686 21.9716 11.8222C22.3369 11.3758 22.5383 10.8178 22.5424 10.2411V3.37819C22.5439 3.02124 22.4692 2.66808 22.3231 2.34236C22.177 2.01664 21.9631 1.72588 21.6955 1.48954C21.4279 1.2532 21.113 1.07674 20.7716 0.971959C20.4303 0.867183 20.0706 0.836515 19.7165 0.882008Z" fill="#06232C"/>
<path d="M177.24 10.2411C166.178 11.7922 157.589 22.3212 157.524 35.066V52.5686C157.524 53.235 157.788 53.8741 158.26 54.3452C158.731 54.8164 159.37 55.0811 160.037 55.0811H166.455C167.121 55.0811 167.76 54.8164 168.232 54.3452C168.703 53.8741 168.968 53.235 168.968 52.5686V35.1964C168.968 28.6529 172.879 23.1945 178.055 22.0539C178.62 21.9355 179.128 21.6271 179.493 21.18C179.858 20.7329 180.059 20.1742 180.063 19.5969V12.7372C180.065 12.3804 179.99 12.0273 179.845 11.7016C179.699 11.3759 179.485 11.0851 179.218 10.8487C178.951 10.6123 178.636 10.4358 178.295 10.331C177.954 10.2262 177.594 10.1955 177.24 10.2411Z" fill="#06232C"/>
</g>
<defs>
<clipPath id="clip0_25_1538">
<rect width="180.069" height="55.1409" fill="white" transform="translate(0 0.859131)"/>
</clipPath>
</defs>
</svg>
